<?xml version="1.0" standalone="no"?>
<!DOCTYPE svg PUBLIC "-//W3C//DTD SVG 20010904//EN"
 "http://www.w3.org/TR/2001/REC-SVG-20010904/DTD/svg10.dtd">
<svg version="1.0" xmlns="http://www.w3.org/2000/svg"
 width="264.000000pt" height="264.000000pt" viewBox="0 0 264.000000 264.000000"
 preserveAspectRatio="xMidYMid meet">
<metadata>
Created by potrace 1.14, written by Peter Selinger 2001-2017
</metadata>
<g transform="translate(0.000000,264.000000) scale(0.100000,-0.100000)"
fill="#000000" stroke="none">
<path d="M0 1320 l0 -1320 1320 0 1320 0 0 1320 0 1320 -1320 0 -1320 0 0
-1320z m1360 563 c-129 -131 -126 -130 50 16 l125 104 13 -33 13 -32 104 4
c58 1 105 1 105 -2 0 -3 -97 -47 -215 -99 -119 -52 -214 -95 -212 -97 2 -2
110 37 241 86 131 50 245 90 252 90 11 0 14 -24 14 -114 l0 -114 -227 -8 -228
-8 215 -13 c118 -7 221 -15 228 -18 9 -3 12 -38 12 -125 0 -142 -3 -147 -83
-101 -30 17 -67 31 -83 31 -22 0 -43 16 -103 80 -41 44 -79 80 -85 80 -6 0
-24 -7 -40 -15 -26 -14 -34 -14 -73 -1 -54 18 -55 13 -3 -14 22 -11 40 -25 40
-31 0 -9 -37 -89 -47 -99 -2 -2 -20 13 -39 35 l-34 40 31 -52 c26 -42 29 -55
20 -72 -7 -12 -22 -21 -35 -21 -13 0 -29 -7 -36 -15 -22 -26 -30 -6 -31 78
l-2 82 -11 -89 c-6 -49 -16 -91 -22 -93 -6 -2 -19 8 -28 22 -10 15 -26 25 -41
25 -31 0 -31 11 0 79 39 84 23 70 -26 -21 -34 -64 -242 -342 -302 -403 -6 -6
-7 34 -3 115 l6 125 167 164 c185 180 175 180 -25 -1 -71 -65 -132 -118 -134
-118 -10 0 5 196 16 206 6 7 59 31 118 55 59 23 106 45 103 47 -3 3 -143 -40
-212 -66 -10 -3 -13 15 -13 71 0 42 3 78 8 80 4 2 56 0 117 -4 60 -5 111 -7
112 -5 2 2 -33 9 -79 15 -46 7 -98 14 -115 18 l-33 5 0 79 c0 43 4 80 8 83 4
2 56 -27 116 -65 59 -38 105 -66 102 -61 -3 5 -46 40 -96 77 -49 38 -87 72
-83 76 5 4 47 10 94 14 l86 7 27 -61 c15 -34 29 -61 31 -61 2 0 -2 21 -10 48
-24 78 -24 79 53 85 37 3 68 4 69 3 1 -1 -5 -28 -13 -60 -20 -78 -12 -81 16
-6 12 33 27 63 33 67 10 6 105 19 162 22 28 1 22 -7 -85 -116z m264 -505 c-9
-20 -14 -43 -11 -52 6 -15 9 -14 27 4 29 29 38 25 45 -24 5 -34 3 -52 -11 -74
l-17 -30 -71 32 c-59 27 -76 31 -100 23 -21 -7 -37 -5 -63 7 -48 23 -72 20
-85 -9 -9 -19 -16 -23 -35 -19 -37 10 -29 -20 19 -64 45 -42 44 -52 -5 -82
l-31 -19 -43 39 c-29 28 -52 40 -72 40 -16 0 -33 5 -36 10 -11 17 15 40 45 40
35 0 70 41 70 81 0 31 14 39 24 14 8 -23 25 -18 36 10 13 35 30 39 88 21 l51
-15 11 55 c7 35 16 54 26 54 11 0 14 16 14 67 l0 68 71 -71 70 -71 -17 -35z
m-443 -44 c33 -32 28 -59 -13 -73 -23 -8 -35 -8 -45 1 -24 19 -3 97 26 98 3 0
17 -12 32 -26z m-348 -361 c-16 -3 -23 -11 -23 -28 0 -13 5 -26 10 -28 6 -3 5
-4 -2 -3 -6 1 -16 9 -22 18 -13 21 9 48 38 47 20 -2 20 -2 -1 -6z m107 -28 c0
-7 -8 -19 -17 -26 -17 -13 -17 -12 -4 4 13 16 13 22 1 40 -12 20 -12 21 3 8
10 -7 17 -19 17 -26z m17 -17 c-2 -13 -4 -5 -4 17 -1 22 1 32 4 23 2 -10 2
-28 0 -40z m34 25 c7 -18 6 -30 -1 -37 -7 -7 -10 -6 -11 5 0 7 -2 24 -3 37 -3
30 2 28 15 -5z m26 -25 c-2 -13 -4 -5 -4 17 -1 22 1 32 4 23 2 -10 2 -28 0
-40z m37 37 c-4 -9 0 -15 7 -15 12 0 12 -2 0 -9 -7 -5 -10 -14 -7 -20 4 -6 2
-11 -3 -11 -6 0 -11 16 -11 35 0 19 4 35 10 35 5 0 7 -7 4 -15z m68 -15 c5 0
8 7 4 15 -6 17 9 21 20 4 3 -6 1 -16 -5 -22 -7 -7 -7 -15 2 -26 7 -11 4 -10
-10 2 -21 18 -21 18 -26 0 -3 -10 -5 0 -5 22 0 22 2 32 5 23 2 -10 9 -18 15
-18z m73 3 c35 -40 31 -54 -5 -15 -16 18 -30 35 -30 38 0 10 13 2 35 -23z m60
-8 c0 -29 -2 -32 -13 -21 -11 11 -11 18 -3 35 15 28 16 27 16 -14z m55 0 c0
-7 -6 -17 -12 -23 -10 -8 -13 -3 -13 23 0 26 3 31 13 23 6 -6 12 -16 12 -23z
m46 20 c-3 -9 0 -15 10 -15 11 0 14 5 10 17 -4 10 -4 14 1 10 4 -5 8 -22 9
-38 2 -29 1 -30 -19 -12 -19 17 -20 17 -14 1 4 -10 2 -18 -3 -18 -6 0 -10 16
-10 35 0 19 5 35 11 35 6 0 9 -7 5 -15z m66 -3 c3 -9 1 -26 -3 -37 -6 -15 -8
-11 -8 18 -1 40 4 48 11 19z m80 11 c-29 -6 -38 -28 -21 -50 12 -14 12 -16 -1
-11 -37 12 -16 69 24 67 19 -2 19 -2 -2 -6z m45 -45 c-2 -13 -4 -5 -4 17 -1
22 1 32 4 23 2 -10 2 -28 0 -40z m44 43 c-9 -6 -12 -19 -9 -36 5 -24 4 -25 -9
-12 -12 12 -13 19 -4 36 7 11 17 21 24 21 8 0 8 -3 -2 -9z m49 -26 c0 -7 -8
-19 -17 -26 -15 -13 -15 -12 -6 6 8 14 8 25 1 40 -10 18 -10 19 5 6 10 -7 17
-19 17 -26z m63 11 c3 25 4 24 6 -8 1 -43 -8 -48 -28 -15 l-15 22 -7 -25 c-5
-20 -7 -17 -6 14 l0 39 23 -28 22 -28 5 29z m76 -36 c0 -9 -4 -7 -11 7 l-11
22 -19 -22 c-18 -22 -18 -21 -1 16 17 37 17 37 30 15 7 -13 12 -30 12 -38z
m33 25 c2 -19 0 -35 -4 -35 -4 0 -8 16 -8 35 0 19 2 35 4 35 2 0 6 -16 8 -35z
m-930 -4 c2 -17 1 -28 -4 -25 -8 5 -12 54 -4 54 2 0 6 -13 8 -29z m285 -23
c-3 -7 -5 -2 -5 12 0 14 2 19 5 13 2 -7 2 -19 0 -25z m-307 7 c0 -8 -4 -15
-10 -15 -5 0 -7 7 -4 15 4 8 8 15 10 15 2 0 4 -7 4 -15z m665 6 c3 -5 1 -12
-5 -16 -5 -3 -10 1 -10 9 0 18 6 21 15 7z m-157 -99 c4 -25 -13 -30 -22 -6 -4
10 -16 14 -38 12 -28 -2 -33 -7 -33 -28 0 -19 7 -27 30 -33 71 -22 75 -25 75
-61 0 -42 -37 -76 -84 -76 -35 0 -50 8 -59 32 -9 25 5 30 21 7 10 -14 23 -19
44 -17 63 6 63 66 0 79 -18 4 -39 12 -47 19 -16 13 -20 57 -7 77 23 37 115 33
120 -5z m-384 6 c15 -24 0 -34 -22 -15 -21 19 -64 22 -91 7 -31 -16 -45 -63
-31 -104 20 -63 80 -86 120 -46 l20 20 0 -24 c0 -39 -64 -49 -127 -19 -70 33
-79 133 -16 183 34 27 129 25 147 -2z m86 -57 c0 -104 3 -111 51 -111 51 0 61
21 57 116 -3 67 -1 74 16 74 12 0 16 -5 12 -16 -3 -9 -6 -49 -6 -90 0 -61 -4
-78 -20 -94 -29 -29 -94 -27 -125 5 -22 21 -25 33 -25 94 0 38 -3 76 -6 85 -5
12 0 16 20 16 26 0 26 -1 26 -79z m514 73 c17 -6 23 -44 7 -44 -5 0 -14 7 -21
15 -14 17 -62 20 -90 5 -27 -14 -40 -62 -29 -104 17 -62 79 -86 119 -46 26 26
33 25 24 -2 -9 -30 -22 -38 -62 -38 -86 0 -145 68 -123 141 16 53 52 79 112
79 26 0 54 -3 63 -6z m224 -19 c38 -32 48 -72 29 -116 -20 -47 -48 -70 -95
-76 -83 -11 -144 56 -122 137 14 54 51 80 111 80 36 0 55 -6 77 -25z m-1001
-697 c-3 -8 -6 -5 -6 6 -1 11 2 17 5 13 3 -3 4 -12 1 -19z m48 0 c0 -6 8 -12
18 -14 9 -1 17 4 17 12 0 8 5 14 10 14 6 0 10 -16 10 -35 0 -19 -4 -35 -10
-35 -5 0 -10 7 -10 15 0 8 -9 15 -21 15 -11 0 -18 -4 -14 -9 3 -5 1 -12 -5
-16 -6 -4 -10 10 -10 36 0 23 3 39 8 35 4 -4 7 -12 7 -18z m485 7 c0 -20 20
-19 36 3 12 15 13 12 14 -25 0 -24 -4 -43 -10 -43 -5 0 -10 7 -10 15 0 8 -7
15 -15 15 -8 0 -15 -7 -15 -15 0 -8 -4 -15 -10 -15 -5 0 -10 18 -10 40 0 22 5
40 10 40 6 0 10 -7 10 -15z m90 -25 c0 -22 -4 -40 -10 -40 -5 0 -10 18 -10 40
0 22 5 40 10 40 6 0 10 -18 10 -40z m60 30 c0 -5 -8 -10 -17 -10 -17 -1 -17
-1 0 -14 20 -15 23 -42 5 -48 -17 -7 -38 1 -38 14 0 6 7 8 15 4 20 -7 19 4 -2
19 -21 16 -10 45 17 45 11 0 20 -4 20 -10z m70 0 c0 -5 -4 -10 -10 -10 -5 0
-10 -13 -10 -30 0 -16 -4 -30 -10 -30 -5 0 -10 14 -10 30 0 17 -4 30 -10 30
-5 0 -10 5 -10 10 0 6 14 10 30 10 17 0 30 -4 30 -10z m80 -4 c6 -8 10 -25 8
-38 -2 -19 -9 -23 -38 -23 -29 0 -36 4 -38 23 -4 28 14 52 38 52 10 0 23 -7
30 -14z m77 -28 c1 -42 -3 -46 -23 -20 -13 16 -13 16 -14 0 0 -38 -20 -16 -20
23 0 38 1 40 28 37 24 -3 27 -7 29 -40z m33 0 c0 -28 -3 -39 -10 -32 -9 9 -3
74 6 74 2 0 4 -19 4 -42z m75 6 c18 -43 18 -44 6 -44 -5 0 -13 9 -16 20 -3 11
-10 20 -15 20 -4 0 -10 -9 -13 -20 -3 -11 -10 -20 -16 -20 -11 0 3 41 22 68
13 17 15 16 32 -24z m-865 -3 c0 -5 3 -16 6 -25 5 -12 0 -16 -20 -16 -29 0
-35 17 -9 27 15 6 15 7 -3 14 -17 7 -17 8 4 8 12 1 22 -3 22 -8z m68 -28 c-2
-31 -7 -39 -25 -41 -13 -2 -23 1 -23 6 0 6 9 8 20 5 11 -3 20 0 20 6 0 6 -9
11 -20 11 -13 0 -20 7 -20 18 0 24 8 32 32 32 16 0 19 -6 16 -37z m62 12 c0
-14 -5 -25 -11 -25 -5 0 -7 5 -4 10 3 6 2 10 -4 10 -5 0 -11 -5 -13 -12 -3 -9
-6 -9 -12 1 -5 8 0 14 15 18 22 6 22 7 3 14 -18 7 -17 8 4 8 17 1 22 -5 22
-24z m92 0 c3 -14 1 -25 -3 -25 -5 0 -9 9 -9 20 0 28 -20 25 -21 -2 l-2 -23
-4 23 c-2 12 -9 22 -14 22 -5 0 -9 -10 -9 -22 0 -18 -2 -20 -9 -9 -15 24 -1
41 34 41 27 0 34 -4 37 -25z m66 -3 c3 -18 -1 -22 -22 -22 -19 0 -26 5 -26 18
0 39 43 43 48 4z m42 18 c-10 -6 -11 -10 -2 -10 6 0 12 -7 12 -15 0 -9 -9 -15
-22 -14 -21 0 -21 1 -4 8 18 7 18 8 2 14 -21 8 -12 27 12 27 15 0 15 -2 2 -10z"/>
<path d="M1131 1806 c-7 -8 -10 -24 -6 -36 5 -14 2 -20 -9 -20 -35 0 9 -71 51
-82 46 -12 60 -34 38 -58 -19 -21 -17 -29 7 -34 30 -6 66 -26 70 -38 3 -7 7
11 11 41 3 29 13 64 22 77 20 31 19 34 -10 34 -14 0 -25 4 -25 10 0 5 -11 12
-25 16 -14 3 -25 12 -25 19 0 7 -7 18 -16 26 -8 7 -13 21 -11 31 3 10 0 18 -6
18 -7 0 -21 3 -33 6 -12 3 -26 -1 -33 -10z"/>
<path d="M1674 819 c-28 -31 -26 -100 5 -133 71 -76 167 38 108 127 -23 35
-84 38 -113 6z"/>
<path d="M1587 126 c-7 -17 18 -40 33 -31 5 3 10 15 10 26 0 23 -35 27 -43 5z"/>
<path d="M1685 130 c3 -5 8 -10 11 -10 2 0 4 5 4 10 0 6 -5 10 -11 10 -5 0 -7
-4 -4 -10z"/>
<path d="M990 105 c0 -8 7 -15 15 -15 8 0 15 7 15 15 0 8 -7 15 -15 15 -8 0
-15 -7 -15 -15z"/>
<path d="M1210 105 c0 -8 7 -15 15 -15 8 0 15 7 15 15 0 8 -7 15 -15 15 -8 0
-15 -7 -15 -15z"/>
</g>
</svg>
